# xmcd
#
# Track frame offsets:
# 150
# 21890
# 39315
# 60875
# 79317
# 97852
# 119382
# 141655
# 162117
# 177905
# 199380
# 219287
# 241125
# 260580
#
# Disc length: 3661 seconds
#
#
# Revision: 0
# Processed by: cddbd v1.5.1PL0 Copyright (c) Steve Scherf et al.
# Submitted via: FreeRIP 2.90 
#
DISCID=bb0e4b0e
DTITLE=Leila Pinheiro - Obras Prima - Leila Pinheiro
DYEAR=1998
DGENRE=Blues
TTITLE0=Acalanto
TTITLE1=A Vida Corre ( Anema e Core)
TTITLE2=Como uma Onda
TTITLE3=Dona De Castelo
TTITLE4=Noturna
TTITLE5=Pra Dizer Adeus/Caneias
TTITLE6=Batida Diferente
TTITLE7=Mentiras/Ate Quem Sabe
TTITLE8=Voz de Mulher
TTITLE9=Gostava Tanto de Voce
TTITLE10=Coisas do Brasil
TTITLE11=Quem te Viu Quem te Ve/Tem Mais Samba/Canta Canta Minha Gente
TTITLE12=Vai Passar
TTITLE13=Olhu Nu
EXTD=
EXTT0=
EXTT1=
EXTT2=
EXTT3=
EXTT4=
EXTT5=
EXTT6=
EXTT7=
EXTT8=
EXTT9=
EXTT10=
EXTT11=
EXTT12=
EXTT13=
PLAYORDER=
